<mxfile host="app.diagrams.net" modified="2022-10-10T01:25:15.370Z" agent="5.0 (Windows NT 10.0; Win64; x64) AppleWebKit/537.36 (KHTML, like Gecko) Chrome/105.0.0.0 Safari/537.36" etag="asyhPY5UlPdrOQEs075g" version="20.4.0" type="github">
  <diagram id="C5RBs43oDa-KdzZeNtuy" name="Page-1">
    <mxGraphModel dx="4093" dy="2533" grid="1" gridSize="19" guides="1" tooltips="1" connect="1" arrows="1" fold="1" page="0" pageScale="1" pageWidth="827" pageHeight="1169" math="0" shadow="0">
      <root>
        <mxCell id="WIyWlLk6GJQsqaUBKTNV-0" />
        <mxCell id="WIyWlLk6GJQsqaUBKTNV-1" parent="WIyWlLk6GJQsqaUBKTNV-0" />
        <mxCell id="zkfFHV4jXpPFQw0GAbJ--17" value="CampanhaDoMestre" style="swimlane;fontStyle=0;align=center;verticalAlign=top;childLayout=stackLayout;horizontal=1;startSize=26;horizontalStack=0;resizeParent=1;resizeLast=0;collapsible=1;marginBottom=0;rounded=0;shadow=0;strokeWidth=1;" parent="WIyWlLk6GJQsqaUBKTNV-1" vertex="1">
          <mxGeometry x="-19" y="-570" width="250" height="190" as="geometry">
            <mxRectangle x="550" y="140" width="160" height="26" as="alternateBounds" />
          </mxGeometry>
        </mxCell>
        <mxCell id="zkfFHV4jXpPFQw0GAbJ--18" value="+ nome: String&#xa;+npc: List&lt;Personagem&gt;&#xa;+monstro: List&lt;Personagem&gt;" style="text;align=left;verticalAlign=top;spacingLeft=4;spacingRight=4;overflow=hidden;rotatable=0;points=[[0,0.5],[1,0.5]];portConstraint=eastwest;" parent="zkfFHV4jXpPFQw0GAbJ--17" vertex="1">
          <mxGeometry y="26" width="250" height="69" as="geometry" />
        </mxCell>
        <mxCell id="zkfFHV4jXpPFQw0GAbJ--23" value="" style="line;html=1;strokeWidth=1;align=left;verticalAlign=middle;spacingTop=-1;spacingLeft=3;spacingRight=3;rotatable=0;labelPosition=right;points=[];portConstraint=eastwest;" parent="zkfFHV4jXpPFQw0GAbJ--17" vertex="1">
          <mxGeometry y="95" width="250" height="8" as="geometry" />
        </mxCell>
        <mxCell id="aQi3MAtJLsASPVlaxSXh-14" value="+criarCenario():Cenario&lt;br&gt;+chamarCenario(): Cenario&lt;br&gt;+criarPersonagem():Personagem&lt;br&gt;+criarMonstro():Personagem" style="text;html=1;align=left;verticalAlign=middle;resizable=0;points=[];autosize=1;strokeColor=none;fillColor=none;" parent="zkfFHV4jXpPFQw0GAbJ--17" vertex="1">
          <mxGeometry y="103" width="250" height="76" as="geometry" />
        </mxCell>
        <mxCell id="aQi3MAtJLsASPVlaxSXh-3" value="CenÃ¡rio" style="rounded=0;whiteSpace=wrap;html=1;" parent="WIyWlLk6GJQsqaUBKTNV-1" vertex="1">
          <mxGeometry x="481" y="-798" width="280" height="30" as="geometry" />
        </mxCell>
        <mxCell id="aQi3MAtJLsASPVlaxSXh-4" value="" style="rounded=0;whiteSpace=wrap;html=1;" parent="WIyWlLk6GJQsqaUBKTNV-1" vertex="1">
          <mxGeometry x="481" y="-768" width="280" height="120" as="geometry" />
        </mxCell>
        <mxCell id="aQi3MAtJLsASPVlaxSXh-6" value="Equipamentos" style="rounded=0;whiteSpace=wrap;html=1;" parent="WIyWlLk6GJQsqaUBKTNV-1" vertex="1">
          <mxGeometry x="906.5" y="481.5" width="220" height="30" as="geometry" />
        </mxCell>
        <mxCell id="aQi3MAtJLsASPVlaxSXh-7" style="edgeStyle=orthogonalEdgeStyle;rounded=0;orthogonalLoop=1;jettySize=auto;html=1;exitX=0.5;exitY=1;exitDx=0;exitDy=0;" parent="WIyWlLk6GJQsqaUBKTNV-1" edge="1">
          <mxGeometry relative="1" as="geometry">
            <mxPoint x="753" y="347.5" as="sourcePoint" />
            <mxPoint x="753" y="347.5" as="targetPoint" />
          </mxGeometry>
        </mxCell>
        <mxCell id="aQi3MAtJLsASPVlaxSXh-8" value="" style="rounded=0;whiteSpace=wrap;html=1;" parent="WIyWlLk6GJQsqaUBKTNV-1" vertex="1">
          <mxGeometry x="481" y="-648" width="280" height="150" as="geometry" />
        </mxCell>
        <mxCell id="aQi3MAtJLsASPVlaxSXh-9" value="" style="rounded=0;whiteSpace=wrap;html=1;" parent="WIyWlLk6GJQsqaUBKTNV-1" vertex="1">
          <mxGeometry x="906.5" y="511.5" width="220" height="115.5" as="geometry" />
        </mxCell>
        <mxCell id="aQi3MAtJLsASPVlaxSXh-18" value="Personagem&amp;nbsp;" style="rounded=0;whiteSpace=wrap;html=1;" parent="WIyWlLk6GJQsqaUBKTNV-1" vertex="1">
          <mxGeometry x="513" y="152.5" width="247" height="35" as="geometry" />
        </mxCell>
        <mxCell id="pw85wmvpRaySXr9k1KnQ-8" style="edgeStyle=orthogonalEdgeStyle;rounded=0;orthogonalLoop=1;jettySize=auto;html=1;entryX=1;entryY=0.25;entryDx=0;entryDy=0;" parent="WIyWlLk6GJQsqaUBKTNV-1" target="pw85wmvpRaySXr9k1KnQ-3" edge="1">
          <mxGeometry relative="1" as="geometry">
            <Array as="points">
              <mxPoint x="513" y="456" />
              <mxPoint x="514" y="456" />
              <mxPoint x="514" y="418" />
              <mxPoint x="353" y="418" />
              <mxPoint x="353" y="713" />
            </Array>
            <mxPoint x="513" y="449" as="sourcePoint" />
          </mxGeometry>
        </mxCell>
        <mxCell id="pw85wmvpRaySXr9k1KnQ-34" style="edgeStyle=orthogonalEdgeStyle;rounded=0;orthogonalLoop=1;jettySize=auto;html=1;exitX=0;exitY=0.5;exitDx=0;exitDy=0;entryX=1;entryY=0.5;entryDx=0;entryDy=0;" parent="WIyWlLk6GJQsqaUBKTNV-1" target="pw85wmvpRaySXr9k1KnQ-0" edge="1">
          <mxGeometry relative="1" as="geometry">
            <Array as="points">
              <mxPoint x="514" y="418" />
              <mxPoint x="353" y="418" />
              <mxPoint x="353" y="587" />
            </Array>
            <mxPoint x="513.5" y="449.0000000000002" as="sourcePoint" />
          </mxGeometry>
        </mxCell>
        <mxCell id="aQi3MAtJLsASPVlaxSXh-20" value="" style="rounded=0;whiteSpace=wrap;html=1;" parent="WIyWlLk6GJQsqaUBKTNV-1" vertex="1">
          <mxGeometry x="513" y="187.5" width="247" height="192.5" as="geometry" />
        </mxCell>
        <mxCell id="7tbVIV-6kWvi_5owY3Rs-22" style="edgeStyle=orthogonalEdgeStyle;rounded=0;orthogonalLoop=1;jettySize=auto;html=1;exitX=0;exitY=0.5;exitDx=0;exitDy=0;startArrow=none;" parent="WIyWlLk6GJQsqaUBKTNV-1" source="7tbVIV-6kWvi_5owY3Rs-24" target="7tbVIV-6kWvi_5owY3Rs-16" edge="1">
          <mxGeometry relative="1" as="geometry" />
        </mxCell>
        <mxCell id="xMzIyeOoaKzMOS7QW3ga-16" style="edgeStyle=orthogonalEdgeStyle;rounded=0;orthogonalLoop=1;jettySize=auto;html=1;exitX=0;exitY=0.5;exitDx=0;exitDy=0;fontFamily=Helvetica;fontSize=12;fontColor=default;entryX=0.5;entryY=1;entryDx=0;entryDy=0;" edge="1" parent="WIyWlLk6GJQsqaUBKTNV-1" source="aQi3MAtJLsASPVlaxSXh-21" target="i_C0AF-9v9BAxJ9rnjFK-3">
          <mxGeometry relative="1" as="geometry">
            <mxPoint x="215" y="323" as="targetPoint" />
            <Array as="points">
              <mxPoint x="513" y="274" />
              <mxPoint x="513" y="304" />
              <mxPoint x="215" y="304" />
            </Array>
          </mxGeometry>
        </mxCell>
        <mxCell id="aQi3MAtJLsASPVlaxSXh-21" value="-nome: String&#xa;-raca: RacaDoPersonagem&#xa;-classe: ClasseDoPersonagem&#xa;-tipo: TipoPersonagem&#xa;-forca: double&#xa;-defesa: double&#xa;-constituicao: double&#xa;-inteligencia: double&#xa;-pontosVida: double&#xa;-pontosMana: double&#xa;-bonusDano: double&#xa;-bonusDefesa: double&#xa;&#xa;&#xa;&#xa;" style="text;align=left;verticalAlign=top;spacingLeft=4;spacingRight=4;overflow=hidden;rotatable=0;points=[[0,0.5],[1,0.5]];portConstraint=eastwest;" parent="WIyWlLk6GJQsqaUBKTNV-1" vertex="1">
          <mxGeometry x="513" y="187.5" width="240" height="173.5" as="geometry" />
        </mxCell>
        <mxCell id="aQi3MAtJLsASPVlaxSXh-22" value="-nomeEquipamento: String&#xa;-tipo: TipoItens&#xa;-dano: double&#xa;-defesa: double&#xa;-pontosVida: double&#xa;-pontoMana: double" style="text;align=left;verticalAlign=top;spacingLeft=4;spacingRight=4;overflow=hidden;rotatable=0;points=[[0,0.5],[1,0.5]];portConstraint=eastwest;" parent="WIyWlLk6GJQsqaUBKTNV-1" vertex="1">
          <mxGeometry x="906.5" y="511.5" width="187" height="134.5" as="geometry" />
        </mxCell>
        <mxCell id="pw85wmvpRaySXr9k1KnQ-32" style="edgeStyle=orthogonalEdgeStyle;rounded=0;orthogonalLoop=1;jettySize=auto;html=1;exitX=1;exitY=0.5;exitDx=0;exitDy=0;entryX=0;entryY=0.5;entryDx=0;entryDy=0;" parent="WIyWlLk6GJQsqaUBKTNV-1" source="aQi3MAtJLsASPVlaxSXh-23" target="pw85wmvpRaySXr9k1KnQ-30" edge="1">
          <mxGeometry relative="1" as="geometry" />
        </mxCell>
        <mxCell id="pw85wmvpRaySXr9k1KnQ-51" style="edgeStyle=orthogonalEdgeStyle;rounded=0;orthogonalLoop=1;jettySize=auto;html=1;exitX=0;exitY=0.5;exitDx=0;exitDy=0;entryX=1.007;entryY=0.041;entryDx=0;entryDy=0;entryPerimeter=0;" parent="WIyWlLk6GJQsqaUBKTNV-1" source="aQi3MAtJLsASPVlaxSXh-23" target="zkfFHV4jXpPFQw0GAbJ--18" edge="1">
          <mxGeometry relative="1" as="geometry" />
        </mxCell>
        <mxCell id="aQi3MAtJLsASPVlaxSXh-23" value="+titulo: String&#xa;+tema: String&#xa;+enredo: String&#xa;+jogadores: List&lt;Personagem&gt;&#xa;+monstros: List&lt;Personagem&gt;&#xa;+npc: List&lt;Personagem&gt;&#xa;" style="text;align=left;verticalAlign=top;spacingLeft=4;spacingRight=4;overflow=hidden;rotatable=0;points=[[0,0.5],[1,0.5]];portConstraint=eastwest;" parent="WIyWlLk6GJQsqaUBKTNV-1" vertex="1">
          <mxGeometry x="481" y="-768" width="280" height="110" as="geometry" />
        </mxCell>
        <mxCell id="aQi3MAtJLsASPVlaxSXh-32" value="&lt;br&gt;+chamarMonstros(): Personagem&lt;br&gt;+chamarPersonagem(): Personagem&lt;br&gt;+chamarNPC(): Personagem&lt;br&gt;+darTitulo():String&lt;br&gt;+darTema():String&lt;br&gt;+criarEnredo():String&lt;br&gt;+moverPersonagem(): int&lt;br&gt;+acaoPersonagem(Personagem, valor): int" style="text;html=1;align=left;verticalAlign=middle;resizable=0;points=[];autosize=1;strokeColor=none;fillColor=none;" parent="WIyWlLk6GJQsqaUBKTNV-1" vertex="1">
          <mxGeometry x="488" y="-658" width="266" height="152" as="geometry" />
        </mxCell>
        <mxCell id="aqDDlLiModhRZFDufuGG-31" value="Dados" style="rounded=0;whiteSpace=wrap;html=1;" parent="WIyWlLk6GJQsqaUBKTNV-1" vertex="1">
          <mxGeometry x="380.00000000000017" y="494" width="241.31" height="30" as="geometry" />
        </mxCell>
        <mxCell id="aqDDlLiModhRZFDufuGG-33" value="+dadosValidarAtaque(): double&lt;br&gt;+dadosCalcularDano(): double" style="rounded=0;whiteSpace=wrap;html=1;align=left;" parent="WIyWlLk6GJQsqaUBKTNV-1" vertex="1">
          <mxGeometry x="380.00000000000006" y="524" width="241.31" height="70" as="geometry" />
        </mxCell>
        <mxCell id="pw85wmvpRaySXr9k1KnQ-46" style="edgeStyle=orthogonalEdgeStyle;rounded=0;orthogonalLoop=1;jettySize=auto;html=1;exitX=0.5;exitY=1;exitDx=0;exitDy=0;" parent="WIyWlLk6GJQsqaUBKTNV-1" source="7tbVIV-6kWvi_5owY3Rs-0" edge="1">
          <mxGeometry relative="1" as="geometry">
            <mxPoint x="657.3846153846152" y="152" as="targetPoint" />
          </mxGeometry>
        </mxCell>
        <mxCell id="7tbVIV-6kWvi_5owY3Rs-0" value="Jogador&#xa;" style="swimlane;fontStyle=0;align=center;verticalAlign=top;childLayout=stackLayout;horizontal=1;startSize=26;horizontalStack=0;resizeParent=1;resizeLast=0;collapsible=1;marginBottom=0;rounded=0;shadow=0;strokeWidth=1;" parent="WIyWlLk6GJQsqaUBKTNV-1" vertex="1">
          <mxGeometry x="532" y="-95" width="250" height="95" as="geometry">
            <mxRectangle x="550" y="140" width="160" height="26" as="alternateBounds" />
          </mxGeometry>
        </mxCell>
        <mxCell id="7tbVIV-6kWvi_5owY3Rs-1" value="-nomeJogador: String&#xa;-idadeJogador: int&#xa;-personagemDoJogador: Personagem" style="text;align=left;verticalAlign=top;spacingLeft=4;spacingRight=4;overflow=hidden;rotatable=0;points=[[0,0.5],[1,0.5]];portConstraint=eastwest;" parent="7tbVIV-6kWvi_5owY3Rs-0" vertex="1">
          <mxGeometry y="26" width="250" height="54" as="geometry" />
        </mxCell>
        <mxCell id="7tbVIV-6kWvi_5owY3Rs-14" value="&lt;&lt;interface&gt;&gt;&#xa;AcoesPersonagens" style="swimlane;fontStyle=0;align=center;verticalAlign=top;childLayout=stackLayout;horizontal=1;startSize=38;horizontalStack=0;resizeParent=1;resizeLast=0;collapsible=1;marginBottom=0;rounded=0;shadow=0;strokeWidth=1;" parent="WIyWlLk6GJQsqaUBKTNV-1" vertex="1">
          <mxGeometry x="-57" y="380" width="250" height="133" as="geometry">
            <mxRectangle x="550" y="140" width="160" height="26" as="alternateBounds" />
          </mxGeometry>
        </mxCell>
        <mxCell id="7tbVIV-6kWvi_5owY3Rs-16" value="" style="line;html=1;strokeWidth=1;align=left;verticalAlign=middle;spacingTop=-1;spacingLeft=3;spacingRight=3;rotatable=0;labelPosition=right;points=[];portConstraint=eastwest;" parent="7tbVIV-6kWvi_5owY3Rs-14" vertex="1">
          <mxGeometry y="38" width="250" height="8" as="geometry" />
        </mxCell>
        <mxCell id="7tbVIV-6kWvi_5owY3Rs-17" value="&lt;div style=&quot;direction: ltr;&quot;&gt;&lt;span style=&quot;background-color: initial;&quot;&gt;+atacar(): boolean&lt;/span&gt;&lt;/div&gt;&lt;div style=&quot;direction: ltr;&quot;&gt;&lt;span style=&quot;background-color: initial;&quot;&gt;+usarCajado(): boolean&lt;/span&gt;&lt;/div&gt;&lt;div style=&quot;direction: ltr;&quot;&gt;&lt;span style=&quot;background-color: initial;&quot;&gt;+equiparItem: boolean&lt;/span&gt;&lt;/div&gt;&lt;div style=&quot;direction: ltr;&quot;&gt;&lt;span style=&quot;background-color: initial;&quot;&gt;+usarPocao: boolean&lt;/span&gt;&lt;/div&gt;" style="text;html=1;align=left;verticalAlign=middle;resizable=0;points=[];autosize=1;strokeColor=none;fillColor=none;" parent="7tbVIV-6kWvi_5owY3Rs-14" vertex="1">
          <mxGeometry y="46" width="250" height="76" as="geometry" />
        </mxCell>
        <mxCell id="7tbVIV-6kWvi_5owY3Rs-24" value="&amp;lt;&amp;lt;implements&amp;gt;&amp;gt;" style="text;html=1;strokeColor=none;fillColor=none;align=center;verticalAlign=middle;whiteSpace=wrap;rounded=0;" parent="WIyWlLk6GJQsqaUBKTNV-1" vertex="1">
          <mxGeometry x="264.65" y="350" width="98" height="30" as="geometry" />
        </mxCell>
        <mxCell id="7tbVIV-6kWvi_5owY3Rs-25" value="" style="edgeStyle=orthogonalEdgeStyle;rounded=0;orthogonalLoop=1;jettySize=auto;html=1;exitX=0;exitY=0.5;exitDx=0;exitDy=0;endArrow=none;" parent="WIyWlLk6GJQsqaUBKTNV-1" source="aQi3MAtJLsASPVlaxSXh-21" target="7tbVIV-6kWvi_5owY3Rs-24" edge="1">
          <mxGeometry relative="1" as="geometry">
            <mxPoint x="513" y="267.5" as="sourcePoint" />
            <mxPoint x="269" y="156" as="targetPoint" />
            <Array as="points">
              <mxPoint x="513" y="274" />
              <mxPoint x="513" y="361" />
            </Array>
          </mxGeometry>
        </mxCell>
        <mxCell id="pw85wmvpRaySXr9k1KnQ-0" value="&lt;&lt;enum&gt;&gt;&#xa;Classe" style="swimlane;fontStyle=0;align=center;verticalAlign=top;childLayout=stackLayout;horizontal=1;startSize=38;horizontalStack=0;resizeParent=1;resizeLast=0;collapsible=1;marginBottom=0;rounded=0;shadow=0;strokeWidth=1;" parent="WIyWlLk6GJQsqaUBKTNV-1" vertex="1">
          <mxGeometry x="-57" y="532" width="250" height="109.5" as="geometry">
            <mxRectangle x="550" y="140" width="160" height="26" as="alternateBounds" />
          </mxGeometry>
        </mxCell>
        <mxCell id="pw85wmvpRaySXr9k1KnQ-33" value="GUERREIRO,&lt;br&gt;ARQUEIRO,&lt;br&gt;MAGO;" style="text;html=1;align=left;verticalAlign=middle;resizable=0;points=[];autosize=1;strokeColor=none;fillColor=none;" parent="pw85wmvpRaySXr9k1KnQ-0" vertex="1">
          <mxGeometry y="38" width="250" height="57" as="geometry" />
        </mxCell>
        <mxCell id="pw85wmvpRaySXr9k1KnQ-3" value="&lt;&lt;enum&gt;&gt;&#xa;Raca" style="swimlane;fontStyle=0;align=center;verticalAlign=top;childLayout=stackLayout;horizontal=1;startSize=38;horizontalStack=0;resizeParent=1;resizeLast=0;collapsible=1;marginBottom=0;rounded=0;shadow=0;strokeWidth=1;" parent="WIyWlLk6GJQsqaUBKTNV-1" vertex="1">
          <mxGeometry x="-57" y="684" width="250" height="114" as="geometry">
            <mxRectangle x="550" y="140" width="160" height="26" as="alternateBounds" />
          </mxGeometry>
        </mxCell>
        <mxCell id="pw85wmvpRaySXr9k1KnQ-36" value="&lt;span style=&quot;background-color: initial;&quot;&gt;HOMEM,,&lt;/span&gt;&lt;br&gt;&lt;span style=&quot;background-color: initial;&quot;&gt;ELFO,&lt;/span&gt;&lt;br&gt;&lt;span style=&quot;background-color: initial;&quot;&gt;ORC;&lt;/span&gt;" style="text;html=1;align=left;verticalAlign=middle;resizable=0;points=[];autosize=1;strokeColor=none;fillColor=none;" parent="pw85wmvpRaySXr9k1KnQ-3" vertex="1">
          <mxGeometry y="38" width="250" height="57" as="geometry" />
        </mxCell>
        <mxCell id="pw85wmvpRaySXr9k1KnQ-27" value="CenarioManipulacao" style="rounded=0;whiteSpace=wrap;html=1;" parent="WIyWlLk6GJQsqaUBKTNV-1" vertex="1">
          <mxGeometry x="825" y="-798" width="280" height="30" as="geometry" />
        </mxCell>
        <mxCell id="pw85wmvpRaySXr9k1KnQ-28" value="" style="rounded=0;whiteSpace=wrap;html=1;" parent="WIyWlLk6GJQsqaUBKTNV-1" vertex="1">
          <mxGeometry x="825" y="-768" width="280" height="120" as="geometry" />
        </mxCell>
        <mxCell id="pw85wmvpRaySXr9k1KnQ-29" value="" style="rounded=0;whiteSpace=wrap;html=1;" parent="WIyWlLk6GJQsqaUBKTNV-1" vertex="1">
          <mxGeometry x="825" y="-648" width="280" height="150" as="geometry" />
        </mxCell>
        <mxCell id="pw85wmvpRaySXr9k1KnQ-30" value="+titulo: String&#xa;+tema: String&#xa;+enredo: String&#xa;+jogadores: List&lt;Personagem&gt;&#xa;+monstros: List&lt;Personagem&gt;&#xa;+npc: List&lt;Personagem&gt;&#xa;" style="text;align=left;verticalAlign=top;spacingLeft=4;spacingRight=4;overflow=hidden;rotatable=0;points=[[0,0.5],[1,0.5]];portConstraint=eastwest;" parent="WIyWlLk6GJQsqaUBKTNV-1" vertex="1">
          <mxGeometry x="825" y="-768" width="280" height="110" as="geometry" />
        </mxCell>
        <mxCell id="pw85wmvpRaySXr9k1KnQ-31" value="&lt;br&gt;+chamarMonstros(): Personagem&lt;br&gt;+chamarPersonagem(): Personagem&lt;br&gt;+chamarNPC(): Personagem&lt;br&gt;+darTitulo():String&lt;br&gt;+darTema():String&lt;br&gt;+criarEnredo():String&lt;br&gt;+moverPersonagem(): int&lt;br&gt;+acaoPersonagem(Personagem, valor): int" style="text;html=1;align=left;verticalAlign=middle;resizable=0;points=[];autosize=1;strokeColor=none;fillColor=none;" parent="WIyWlLk6GJQsqaUBKTNV-1" vertex="1">
          <mxGeometry x="825" y="-648" width="266" height="152" as="geometry" />
        </mxCell>
        <mxCell id="pw85wmvpRaySXr9k1KnQ-38" style="edgeStyle=orthogonalEdgeStyle;rounded=0;orthogonalLoop=1;jettySize=auto;html=1;exitX=0.5;exitY=1;exitDx=0;exitDy=0;" parent="WIyWlLk6GJQsqaUBKTNV-1" edge="1">
          <mxGeometry relative="1" as="geometry">
            <mxPoint x="388.00000000000006" y="502" as="sourcePoint" />
            <mxPoint x="388.00000000000006" y="502" as="targetPoint" />
          </mxGeometry>
        </mxCell>
        <mxCell id="i_C0AF-9v9BAxJ9rnjFK-0" style="edgeStyle=orthogonalEdgeStyle;rounded=0;orthogonalLoop=1;jettySize=auto;html=1;exitX=0.5;exitY=1;exitDx=0;exitDy=0;" parent="WIyWlLk6GJQsqaUBKTNV-1" edge="1">
          <mxGeometry relative="1" as="geometry">
            <mxPoint x="433" y="348.82" as="sourcePoint" />
            <mxPoint x="433" y="348.82" as="targetPoint" />
          </mxGeometry>
        </mxCell>
        <mxCell id="i_C0AF-9v9BAxJ9rnjFK-1" value="PersonagemManipulacao" style="rounded=0;whiteSpace=wrap;html=1;" parent="WIyWlLk6GJQsqaUBKTNV-1" vertex="1">
          <mxGeometry x="95" y="103.5" width="240" height="35" as="geometry" />
        </mxCell>
        <mxCell id="i_C0AF-9v9BAxJ9rnjFK-3" value="" style="rounded=0;whiteSpace=wrap;html=1;" parent="WIyWlLk6GJQsqaUBKTNV-1" vertex="1">
          <mxGeometry x="95" y="138.5" width="240" height="98" as="geometry" />
        </mxCell>
        <mxCell id="i_C0AF-9v9BAxJ9rnjFK-4" value="+adicionarPersonagem(): void&#xa;+removerPersonagem(): void&#xa;+editarPersonagem(): void&#xa;+listarPersonagem(): void&#xa;+selecionarPersonagem(): Personagem" style="text;align=left;verticalAlign=top;spacingLeft=4;spacingRight=4;overflow=hidden;rotatable=0;points=[[0,0.5],[1,0.5]];portConstraint=eastwest;" parent="WIyWlLk6GJQsqaUBKTNV-1" vertex="1">
          <mxGeometry x="95" y="138.5" width="240" height="76" as="geometry" />
        </mxCell>
        <mxCell id="i_C0AF-9v9BAxJ9rnjFK-6" value="EquipamentosManipulacao" style="rounded=0;whiteSpace=wrap;html=1;" parent="WIyWlLk6GJQsqaUBKTNV-1" vertex="1">
          <mxGeometry x="855" y="305" width="304" height="30" as="geometry" />
        </mxCell>
        <mxCell id="xMzIyeOoaKzMOS7QW3ga-15" style="edgeStyle=orthogonalEdgeStyle;rounded=0;orthogonalLoop=1;jettySize=auto;html=1;exitX=0.5;exitY=1;exitDx=0;exitDy=0;entryX=0.456;entryY=-0.05;entryDx=0;entryDy=0;entryPerimeter=0;fontFamily=Helvetica;fontSize=12;fontColor=default;" edge="1" parent="WIyWlLk6GJQsqaUBKTNV-1" source="i_C0AF-9v9BAxJ9rnjFK-7" target="aQi3MAtJLsASPVlaxSXh-6">
          <mxGeometry relative="1" as="geometry" />
        </mxCell>
        <mxCell id="i_C0AF-9v9BAxJ9rnjFK-7" value="" style="rounded=0;whiteSpace=wrap;html=1;" parent="WIyWlLk6GJQsqaUBKTNV-1" vertex="1">
          <mxGeometry x="855" y="335" width="304" height="90" as="geometry" />
        </mxCell>
        <mxCell id="xMzIyeOoaKzMOS7QW3ga-24" style="edgeStyle=orthogonalEdgeStyle;rounded=0;orthogonalLoop=1;jettySize=auto;html=1;exitX=0.5;exitY=1;exitDx=0;exitDy=0;entryX=0.5;entryY=0;entryDx=0;entryDy=0;fontFamily=Helvetica;fontSize=12;fontColor=default;" edge="1" parent="WIyWlLk6GJQsqaUBKTNV-1" source="i_C0AF-9v9BAxJ9rnjFK-11" target="7tbVIV-6kWvi_5owY3Rs-0">
          <mxGeometry relative="1" as="geometry" />
        </mxCell>
        <mxCell id="i_C0AF-9v9BAxJ9rnjFK-11" value="JogadorManipulacao&#xa;" style="swimlane;fontStyle=0;align=center;verticalAlign=top;childLayout=stackLayout;horizontal=1;startSize=26;horizontalStack=0;resizeParent=1;resizeLast=0;collapsible=1;marginBottom=0;rounded=0;shadow=0;strokeWidth=1;" parent="WIyWlLk6GJQsqaUBKTNV-1" vertex="1">
          <mxGeometry x="532" y="-304" width="250" height="121" as="geometry">
            <mxRectangle x="550" y="140" width="160" height="26" as="alternateBounds" />
          </mxGeometry>
        </mxCell>
        <mxCell id="xMzIyeOoaKzMOS7QW3ga-23" value="+adicionarJogador(): void&lt;br&gt;+removerJogador(): void&lt;br&gt;+editarJogador(): void&lt;br&gt;+listarJogador(): void&lt;br&gt;+selecionarJogador(): Jogador" style="text;html=1;align=left;verticalAlign=middle;resizable=0;points=[];autosize=1;strokeColor=none;fillColor=none;fontSize=12;fontFamily=Helvetica;fontColor=default;" vertex="1" parent="i_C0AF-9v9BAxJ9rnjFK-11">
          <mxGeometry y="26" width="250" height="95" as="geometry" />
        </mxCell>
        <mxCell id="xMzIyeOoaKzMOS7QW3ga-18" style="edgeStyle=orthogonalEdgeStyle;rounded=0;orthogonalLoop=1;jettySize=auto;html=1;exitX=0.75;exitY=1;exitDx=0;exitDy=0;fontFamily=Helvetica;fontSize=12;fontColor=default;entryX=1;entryY=0.75;entryDx=0;entryDy=0;" edge="1" parent="WIyWlLk6GJQsqaUBKTNV-1" source="xMzIyeOoaKzMOS7QW3ga-5" target="aqDDlLiModhRZFDufuGG-33">
          <mxGeometry relative="1" as="geometry">
            <mxPoint x="698" y="570" as="targetPoint" />
          </mxGeometry>
        </mxCell>
        <mxCell id="xMzIyeOoaKzMOS7QW3ga-5" value="" style="whiteSpace=wrap;html=1;" vertex="1" parent="WIyWlLk6GJQsqaUBKTNV-1">
          <mxGeometry x="513" y="380" width="247" height="76" as="geometry" />
        </mxCell>
        <mxCell id="xMzIyeOoaKzMOS7QW3ga-6" value="&lt;div style=&quot;direction: ltr;&quot;&gt;&lt;span style=&quot;background-color: initial;&quot;&gt;+atacar(): boolean&lt;/span&gt;&lt;/div&gt;&lt;div style=&quot;direction: ltr;&quot;&gt;&lt;span style=&quot;background-color: initial;&quot;&gt;+usarCajado(): boolean&lt;/span&gt;&lt;/div&gt;&lt;div style=&quot;direction: ltr;&quot;&gt;&lt;span style=&quot;background-color: initial;&quot;&gt;+equiparItem: boolean&lt;/span&gt;&lt;/div&gt;&lt;div style=&quot;direction: ltr;&quot;&gt;&lt;span style=&quot;background-color: initial;&quot;&gt;+usarPocao: boolean&lt;/span&gt;&lt;/div&gt;" style="text;html=1;align=left;verticalAlign=middle;resizable=0;points=[];autosize=1;strokeColor=none;fillColor=none;" vertex="1" parent="WIyWlLk6GJQsqaUBKTNV-1">
          <mxGeometry x="513" y="380" width="171" height="76" as="geometry" />
        </mxCell>
        <mxCell id="xMzIyeOoaKzMOS7QW3ga-9" value="+adicionarEquipamentos(): void&lt;br&gt;+removerEquipamentos(): void&lt;br&gt;+editarEquipamentos(): void&lt;br&gt;+listarEquipamentos(): void&lt;br&gt;+selecionarEquipamentosPorIndice(): Equipamentos" style="text;html=1;align=left;verticalAlign=middle;resizable=0;points=[];autosize=1;strokeColor=none;fillColor=none;fontSize=12;fontFamily=Helvetica;fontColor=default;" vertex="1" parent="WIyWlLk6GJQsqaUBKTNV-1">
          <mxGeometry x="855" y="330" width="323" height="95" as="geometry" />
        </mxCell>
      </root>
    </mxGraphModel>
  </diagram>
</mxfile>
